<svg width="122" height="121" viewBox="0 0 122 121" fill="none" xmlns="http://www.w3.org/2000/svg">
<path fill-rule="evenodd" clip-rule="evenodd" d="M61 121C94.4132 121 121.5 93.9132 121.5 60.5C121.5 27.0868 94.4132 0 61 0C27.5868 0 0.5 27.0868 0.5 60.5C0.5 93.9132 27.5868 121 61 121Z" fill="#22A45D"/>
<path fill-rule="evenodd" clip-rule="evenodd" d="M76.5771 45.1686C77.5481 44.0263 79.2614 43.8873 80.4038 44.8584C81.5461 45.8294 81.6851 47.5427 80.714 48.685L57.6387 75.8325C56.6524 76.9928 54.9048 77.115 53.7667 76.1033L41.5503 65.2443C40.4297 64.2482 40.3288 62.5323 41.3249 61.4117C42.3209 60.2911 44.0369 60.1902 45.1575 61.1863L55.2993 70.2013L76.5771 45.1686Z" fill="white"/>
</svg>
