<svg width="603" height="436" viewBox="0 0 603 436" fill="none" xmlns="http://www.w3.org/2000/svg">
<path d="M584.994 435.598C589.667 435.598 594.152 433.757 597.478 430.473C600.804 427.189 602.704 422.726 602.766 418.051C603.506 369.655 607.401 298.264 516.32 278.509C442.605 262.54 486.303 131.437 287.791 139.917C145.291 145.995 183.084 266.187 72.3448 276.204C-1.38343 282.868 -2.02564 376.18 0.80845 418.931C1.10605 423.438 3.10486 427.663 6.39978 430.75C9.6947 433.837 14.0392 435.555 18.5529 435.556L584.994 435.598Z" fill="#82FAD8"/>
<path opacity="0.55" d="M516.319 278.548C442.605 262.579 486.303 131.476 287.791 139.956C253.894 141.353 230.216 149.303 212.304 160.647C218.335 159.851 224.743 159.25 231.57 159.013C430.096 150.532 386.384 281.622 460.098 297.604C550.217 317.164 547.369 387.228 546.573 435.595H584.994C589.666 435.596 594.151 433.754 597.477 430.47C600.804 427.186 602.704 422.723 602.766 418.048C603.506 369.694 607.401 298.303 516.319 278.548Z" fill="#DCFFF5"/>
<path d="M151.951 222.26L149.731 218.265C151.519 214.896 151.967 210.975 150.985 207.29C150.003 203.604 147.664 200.427 144.437 198.396C141.211 196.366 137.336 195.632 133.591 196.343C129.846 197.053 126.509 199.155 124.249 202.227C121.989 205.298 120.975 209.112 121.409 212.901C121.843 216.691 123.694 220.175 126.59 222.655C129.486 225.135 133.212 226.427 137.021 226.271C140.829 226.114 144.437 224.522 147.12 221.813L151.951 222.26Z" fill="#35ECB7"/>
<path d="M67.123 331.762L67.3887 331.426C67.2869 331.527 67.1976 331.639 67.123 331.762Z" fill="#49B4D6"/>
<path d="M94.2639 193.409C96.6311 193.433 98.9266 192.597 100.724 191.055C102.521 189.514 103.699 187.371 104.037 185.027C104.161 184.147 104.221 183.26 104.218 182.372C104.218 177.185 102.159 172.21 98.4934 168.542C94.8279 164.874 89.8564 162.813 84.6727 162.813C84.2399 162.813 83.7931 162.813 83.3603 162.813C82.8828 157.509 80.3828 152.593 76.3792 149.085C72.3756 145.576 67.1759 143.745 61.8591 143.972C56.5424 144.198 51.5169 146.465 47.8257 150.301C44.1345 154.137 42.0611 159.248 42.0357 164.573C42.0357 165.076 42.0357 165.579 42.0357 166.082C38.9968 164.39 35.581 163.491 32.1035 163.469C28.6261 163.446 25.199 164.301 22.1385 165.953C19.078 167.606 16.4828 170.003 14.5922 172.924C12.7017 175.845 11.5768 179.195 11.3214 182.665C11.3214 182.749 11.3214 182.833 11.3214 182.917C11.2531 184.259 11.4587 185.6 11.9257 186.86C12.3926 188.12 13.1111 189.271 14.0374 190.244C14.9636 191.216 16.0782 191.99 17.313 192.517C18.5479 193.045 19.8771 193.315 21.2198 193.311L94.2639 193.409Z" fill="#82FAD7"/>
<path d="M298.541 66.8783C313.898 66.8783 314.791 43.6866 299.406 42.9321H298.136C295.463 42.9305 292.807 43.3453 290.262 44.1616C289.236 37.8996 285.995 32.2154 281.129 28.1461C276.264 24.0769 270.099 21.8939 263.758 21.9956C257.418 22.0972 251.326 24.4767 246.593 28.6999C241.86 32.923 238.802 38.7082 237.978 44.9999C234.698 43.4211 231.105 42.6044 227.465 42.6108C225.407 42.6088 223.357 42.867 221.364 43.3792C207.892 46.858 210.726 66.9063 224.631 66.9063L298.541 66.8783Z" fill="#82FAD7"/>
<path d="M128.998 137.242C149.392 137.242 165.925 120.698 165.925 100.289C165.925 79.8804 149.392 63.3359 128.998 63.3359C108.604 63.3359 92.0713 79.8804 92.0713 100.289C92.0713 120.698 108.604 137.242 128.998 137.242Z" fill="#FFBF4D"/>
<path d="M129.306 63.3359C135.95 67.7009 141.011 74.0941 143.736 81.5662C146.461 89.0383 146.705 97.1907 144.432 104.813C142.158 112.434 137.489 119.119 131.117 123.874C124.745 128.629 117.011 131.201 109.062 131.207H108.755C113.555 134.356 119.023 136.341 124.723 137.006C130.424 137.671 136.202 136.997 141.597 135.038C146.992 133.079 151.857 129.888 155.804 125.718C159.752 121.549 162.674 116.516 164.339 111.02C166.004 105.523 166.365 99.7136 165.394 94.0527C164.424 88.3918 162.148 83.0353 158.747 78.4083C155.347 73.7813 150.915 70.0112 145.805 67.3972C140.694 64.7833 135.045 63.3976 129.306 63.3499V63.3359Z" fill="#FF9F50"/>
<path d="M577.013 44.972C592.382 44.972 593.29 21.7074 577.894 20.9511H576.622C573.946 20.9472 571.287 21.368 568.742 22.1977C567.707 15.9261 564.46 10.2357 559.592 6.16221C554.724 2.08877 548.559 -0.0968158 542.219 0.00329258C535.879 0.103401 529.785 2.48256 525.048 6.70767C520.31 10.9328 517.244 16.7229 516.406 23.024C511.218 20.5543 505.33 19.9844 499.766 21.4133C486.284 24.8869 489.12 45 503.035 45L577.013 44.972Z" fill="#82FAD7"/>
<g clip-path="url(#clip0_2389_13857)">
<path d="M527.436 345.781H366.964C359.25 345.781 351.853 342.712 346.399 337.249C340.945 331.787 337.881 324.378 337.881 316.653V177.517C337.888 155.995 344.223 134.952 356.096 117.013C367.968 99.0735 384.852 85.0326 404.642 76.6417C416.271 71.7181 413.486 68.7351 426.087 68.0457C428.109 67.9348 445.159 68.0306 447.2 68.0306C461.559 68.02 475.78 70.8448 489.048 76.3433C502.317 81.8418 514.373 89.9062 524.526 100.075C534.679 110.244 542.731 122.318 548.221 135.606C553.711 148.894 556.531 163.136 556.519 177.517V316.653C556.519 324.378 553.455 331.787 548.001 337.249C542.547 342.712 535.15 345.781 527.436 345.781ZM372.043 183.322H522.357V177.517C522.357 136.013 488.642 102.247 447.2 102.247C405.758 102.247 372.043 136.013 372.043 177.517V183.322Z" fill="#82FAD7"/>
<path d="M508.077 345.787H347.606C339.893 345.787 332.495 342.718 327.04 337.255C321.586 331.793 318.521 324.384 318.521 316.659V177.522C318.462 163.107 321.245 148.821 326.713 135.486C332.18 122.15 340.223 110.028 350.38 99.8131C360.537 89.5987 372.609 81.4936 385.902 75.9632C399.195 70.4328 413.447 67.5859 427.842 67.5859C442.236 67.5859 456.489 70.4328 469.781 75.9632C483.074 81.4936 495.146 89.5987 505.303 99.8131C515.46 110.028 523.503 122.15 528.97 135.486C534.438 148.821 537.221 163.107 537.162 177.522V316.659C537.162 324.384 534.097 331.793 528.643 337.255C523.188 342.718 515.79 345.787 508.077 345.787ZM352.684 183.327H502.999V177.522C502.999 136.018 469.283 102.252 427.841 102.252C386.398 102.252 352.684 136.018 352.684 177.522V183.327Z" fill="#35ECB7"/>
<path d="M441.368 237.851C441.372 234.604 440.205 231.464 438.083 229.009C436.208 226.219 432.327 224.312 427.84 224.312C423.353 224.312 419.474 226.229 417.599 229.009C416.134 230.709 415.114 232.748 414.631 234.941C414.149 237.134 414.218 239.412 414.833 241.572C415.449 243.731 416.59 245.704 418.156 247.312C419.721 248.919 421.661 250.112 423.802 250.782V271.299C423.802 272.954 425.61 274.305 427.84 274.305C430.07 274.305 431.88 272.964 431.88 271.299V250.782C434.631 249.92 437.034 248.2 438.74 245.874C440.447 243.548 441.367 240.737 441.368 237.851Z" fill="white"/>
<path d="M248.053 220.515C247.796 222.254 245.814 224.272 243.698 225.775C241.421 227.4 240.509 229.07 239.701 229.907C239.401 230.251 239.217 230.439 239.217 230.439L236.778 227.606C236.82 227.575 236.858 227.539 236.891 227.499C237.435 226.906 238.813 225.433 239.733 223.757C241.747 220.062 244.563 219.516 244.563 219.516C244.563 219.516 247.267 219.912 248.053 220.515Z" fill="#FFB27D"/>
<path d="M122.473 256.047L124.116 257.382C124.116 257.382 128.617 255.769 129.623 261.117C129.623 261.117 129.893 263.396 128.452 263.401C127.012 263.407 127.605 263.151 125.564 263.213C123.523 263.275 121.829 262.195 121.531 260.536L120.554 259.129L122.473 256.047Z" fill="#EA8E50"/>
<path d="M122.284 258.913C123.597 257.542 123.49 256.529 123.49 256.529C123.49 256.529 108.312 244.084 106.772 243.072C105.724 242.38 95.1426 232.235 89.3279 226.406C86.5255 223.601 83.5262 224.568 79.8536 225.624L76.828 226.494C73.176 227.542 72.2269 232.659 75.2224 235.135C83.6632 242.136 97.703 250.011 100.331 251.666C106.853 255.776 119.619 260.658 119.619 260.658C120.614 260.259 121.52 259.666 122.284 258.913Z" fill="#992525"/>
<path d="M139.602 335.371C139.602 335.371 143.284 338.134 148.93 336.673C148.93 336.673 153.48 335.636 154.478 337.909C154.478 337.909 147.498 341.459 145.732 342.431C144.402 343.161 143.012 344.309 142.031 345.211C141.846 345.378 141.63 345.506 141.394 345.586C141.159 345.667 140.91 345.698 140.662 345.679C140.414 345.66 140.172 345.59 139.952 345.475C139.731 345.359 139.537 345.199 139.38 345.006C139.073 344.63 138.722 344.178 138.337 343.655C137.261 342.194 134.753 337.477 134.753 337.477L139.602 335.371Z" fill="#233862"/>
<path d="M141.768 333.968C141.768 333.968 139.517 339.147 134.349 338.194C134.349 338.194 123.783 329.457 116.53 320.38C114.176 317.431 112.172 314.448 110.995 311.719C106.189 300.575 93.2183 283.956 84.9707 275.533L105.604 268.059C105.604 268.059 112.216 281.372 121.013 297.726C127.351 309.508 134.82 322.869 141.768 333.968Z" fill="#2B478B"/>
<path d="M121.013 297.726L116.53 320.38C114.176 317.431 112.172 314.448 110.995 311.719C106.189 300.575 93.2183 283.956 84.9707 275.533L105.604 268.059C105.604 268.059 112.216 281.372 121.013 297.726Z" fill="#233862"/>
<path d="M104.15 338.375C104.15 338.375 103.925 342.508 108.928 343.058C108.928 343.058 111.787 343.073 111.796 345.705L97.2553 345.75C97.2553 345.75 96.8333 344.688 96.7301 342.415C96.6513 340.67 98.4183 336.109 98.4183 336.109L104.15 338.375Z" fill="#233862"/>
<path d="M98.8431 268.057C98.8431 268.057 108.034 278.171 113.869 296.394C117.045 306.309 108.055 331.237 106.297 339.899C106.297 339.899 100.265 340.41 96.1401 338.813C96.1401 338.813 95.8269 320.924 98.2391 307.138C99.5896 299.421 86.1369 290.635 80.2584 276.693C76.2593 267.206 81.125 267.368 87.1029 267.141L98.8431 268.057Z" fill="#2B478B"/>
<path d="M88.2329 222.928C83.1197 225.819 72.6494 223.153 72.6494 223.153C72.6494 223.153 76.9017 218.284 74.9697 210.445L78.9856 212.487L83.2998 214.681C83.5279 215.962 83.6856 217.255 83.7725 218.553C83.8231 219.193 83.8663 219.907 83.8963 220.691C85.4663 221.165 86.9362 221.923 88.2329 222.928Z" fill="#FFB07B"/>
<path d="M106.987 267.534C106.987 268.436 105.951 268.866 105.73 268.909C103.667 269.285 97.9083 271.539 92.72 272.046C88.3515 272.504 84.2961 272.069 79.8413 271.173C79.2504 271.054 77.8643 270.68 77.7667 270.113C77.6448 269.495 60.5795 235.275 73.8446 220.575C74.156 220.232 76.7745 220.851 79.1698 221.421C81.1885 221.9 83.3069 221.726 85.2209 220.925L87.4717 222.108C90.2291 223.649 95.4473 229.117 96.0569 233.405C96.3683 235.588 97.6138 237.204 97.9739 239.124C98.1077 239.834 98.2447 240.527 98.3847 241.203C98.6548 242.529 98.9343 243.792 99.2232 244.99C100.003 248.234 100.827 251.028 101.637 253.443C102.496 256.006 103.34 258.14 104.096 259.919C105.074 262.231 105.899 263.959 106.417 265.282C106.777 266.212 106.987 266.942 106.987 267.534Z" fill="#BC3F3F"/>
<path d="M106.413 265.283C82.3247 253.918 73.9814 232.094 73.9814 232.094C73.9814 232.094 93.5528 239.324 98.3809 241.206C98.651 242.533 98.9305 243.795 99.2193 244.993C99.9996 248.238 100.823 251.031 101.633 253.447C102.492 256.009 103.337 258.143 104.092 259.922C105.07 262.225 105.895 263.961 106.413 265.283Z" fill="#992525"/>
<path d="M136.976 259.675H123.677C117.543 259.67 111.661 257.227 107.323 252.883C102.985 248.54 100.545 242.65 100.538 236.506V193.113C100.545 186.971 102.985 181.082 107.321 176.739C111.658 172.395 117.538 169.952 123.671 169.945H136.976C143.108 169.954 148.987 172.397 153.322 176.741C157.658 181.084 160.097 186.972 160.104 193.113V236.506C160.097 242.648 157.659 248.536 153.323 252.88C148.987 257.223 143.108 259.667 136.976 259.675ZM123.677 183.63C121.167 183.633 118.76 184.633 116.985 186.411C115.21 188.189 114.211 190.599 114.208 193.113V236.506C114.211 239.02 115.209 241.431 116.984 243.209C118.759 244.987 121.166 245.988 123.677 245.991H136.976C139.487 245.988 141.894 244.987 143.669 243.209C145.444 241.431 146.442 239.02 146.445 236.506V193.113C146.442 190.599 145.443 188.189 143.668 186.411C141.893 184.633 139.486 183.633 136.976 183.63H123.677Z" fill="#35ECB7"/>
<path d="M276.434 222.804H154.483V206.82H276.434C278.549 206.822 280.577 207.664 282.072 209.163C283.567 210.661 284.407 212.693 284.407 214.811C284.407 216.93 283.568 218.962 282.072 220.461C280.577 221.959 278.549 222.802 276.434 222.804Z" fill="#35ECB7"/>
<path d="M261.132 219.582H273.941V250.908C273.941 251.75 273.775 252.584 273.453 253.363C273.132 254.141 272.66 254.848 272.065 255.444C271.47 256.04 270.764 256.512 269.987 256.835C269.21 257.157 268.377 257.323 267.535 257.323C265.837 257.323 264.207 256.647 263.006 255.444C261.805 254.241 261.13 252.609 261.13 250.908V219.582H261.132Z" fill="#35ECB7"/>
<path d="M120.505 258.692L122.587 259.456C122.587 259.456 126.755 256.505 129.351 261.305C129.351 261.305 130.289 263.403 128.803 263.858C127.318 264.312 127.865 263.884 125.77 264.581C123.675 265.278 121.623 264.769 120.835 263.281L119.419 262.242L120.505 258.692Z" fill="#FFB07B"/>
<path d="M122.219 261.639C122.988 259.629 123.345 258.718 123.345 258.718C123.345 258.718 107.617 245.879 106.015 244.778C104.921 244.027 94.0497 235.889 88.7583 229.545C87.4683 228.001 85.7835 226.838 83.8841 226.178C81.9846 225.519 79.942 225.39 77.9747 225.803L74.6716 226.497C70.6857 227.334 69.3895 232.388 72.4826 235.042C81.1935 242.52 95.8842 251.197 98.6227 252.998C105.422 257.477 120.464 263.753 120.464 263.753C120.464 263.753 121.613 263.219 122.219 261.639Z" fill="#BC3F3F"/>
<path d="M83.7709 218.554C78.742 218.836 75.4727 214.679 75.4727 214.679C75.4727 214.679 77.746 213.416 78.9859 212.488L83.3001 214.682C83.5275 215.963 83.6847 217.256 83.7709 218.554Z" fill="#EA8E50"/>
<path d="M85.9131 213.382C85.9131 213.382 78.2939 218.858 74.9626 214.055C71.6313 209.251 68.3975 206.729 73.1262 203.021C77.8549 199.312 80.0777 200.49 81.5782 201.822C83.0788 203.154 87.8113 211.838 85.9131 213.382Z" fill="#FFB07B"/>
<path d="M82.3915 197.482C82.2364 196.399 81.9374 195.34 81.5024 194.336C81.5024 194.336 81.0241 196.32 77.4039 196.047C73.7838 195.775 68.0478 196.402 66.1346 200.535C66.0127 200.798 65.9057 201.068 65.8082 201.345C65.4631 200.428 65.3787 199.057 65.3787 199.057C64.6903 200.836 65.3787 203.06 65.3787 203.06L65.3505 203.248C64.5515 203.924 63.8818 206.026 63.8818 206.026C64.1219 205.44 64.7109 205.057 65.2342 204.822C65.2174 208.036 66.5191 211.179 68.7981 212.114C72.1407 213.482 72.1125 212.439 75.4738 214.671C75.4738 214.671 76.3742 213.544 75.7589 212.792C75.1437 212.041 72.8234 210.946 74.1214 209.85C75.4194 208.755 75.8959 209.988 76.3723 209.234C76.8487 208.481 74.4609 206.294 77.5334 204.241C80.6058 202.188 82.656 199.331 82.3915 197.482Z" fill="#233862"/>
<path d="M215.85 341.428L213.036 342.474C213.036 342.474 200.844 325.538 199.344 310.636C199.075 307.976 199.156 305.396 199.745 303.016C199.745 303.016 199.625 302.335 199.417 301.138C199.321 300.574 199.201 299.898 199.066 299.122C198.67 296.847 198.128 293.735 197.5 290.19C196.065 282.036 194.206 271.61 192.762 263.946L193.512 263.701L201.696 261.056L203.384 255.676L209.478 254.07C209.478 254.07 210.84 256.738 212.057 269.337C212.282 270.99 212.485 272.812 212.639 274.785C213.2 282.142 213.006 289.537 212.059 296.855C211.78 299.045 211.424 301.303 210.99 303.629C210.669 305.333 210.615 307.653 210.756 310.318C211.384 322.496 215.85 341.428 215.85 341.428Z" fill="#BC3F3F"/>
<path d="M212.654 274.78L199.421 301.13C199.325 300.567 199.205 299.89 199.07 299.115C198.674 296.84 198.132 293.727 197.504 290.182C196.069 282.028 194.21 271.602 192.766 263.938L193.516 263.694L201.7 261.049L203.388 255.669L209.482 254.062C209.482 254.062 210.844 256.73 212.061 269.329C212.298 270.982 212.5 272.804 212.654 274.78Z" fill="#992525"/>
<path d="M206.831 257.445L206.526 254.815C201.394 256.181 187.678 251 187.678 251C187.678 251 182.708 255.377 183.364 265.87C183.681 270.991 184.264 292.755 184.865 299.195C185.084 301.528 185.277 303.188 185.354 303.853C185.368 304.052 185.315 304.25 185.206 304.417C184.321 305.924 183.568 307.504 182.955 309.141C176.987 325.065 183.874 344.675 183.874 344.675L185.66 343.956C185.66 343.956 189.578 322.131 192.763 312.489C193.304 310.855 193.821 309.57 194.296 308.801C195.68 306.564 196.965 302.908 198.132 298.56C200.336 290.338 202.108 279.643 203.29 271.387C203.466 271.406 206.831 257.445 206.831 257.445Z" fill="#BC3F3F"/>
<path d="M238.146 224.793C239.698 225.413 241.215 226.63 242.716 228.15C242.716 228.15 233.962 243.439 228.923 245.663C226.157 246.884 217.502 237.623 215.715 232.434C215.278 231.166 216.891 226.923 216.362 226.031C215.753 225.014 215.353 223.886 215.186 222.713C215.144 222.561 215.126 222.404 215.131 222.247C215.022 221.362 215.075 220.463 215.289 219.597C215.489 219.08 216.056 218.858 216.896 218.872H217.195C221.728 221.543 227.684 234.664 228.666 234.972C231.229 231.721 238.146 224.793 238.146 224.793Z" fill="#2C3A64"/>
<path d="M216.638 225.53C215.027 226.281 213.074 226.788 210.728 226.916C201.912 227.401 199.899 219.654 199.535 214.518C200.507 214.183 201.538 214.055 202.563 214.142C203.189 214.176 203.842 214.24 204.38 214.308C205.461 213.744 207.398 211 208.52 206.418L208.895 206.595L215.261 209.6C215.261 209.6 214.586 211.667 214.085 213.661C213.697 215.215 213.417 216.716 213.65 217.137C214.153 217.34 214.453 217.469 214.453 217.469C215.436 220.08 216.168 222.779 216.638 225.53Z" fill="#FFB27D"/>
<path d="M218.845 231.329C218.777 231.506 218.704 231.677 218.626 231.853C216.39 236.675 212.248 256.649 212.248 256.649C212.839 260.239 185.309 255.945 185.238 252.676C184.268 249.211 188.678 243.641 191.165 240.842C191.475 240.491 191.755 240.114 192 239.715C192.616 238.714 193.001 237.587 193.125 236.418C193.613 231.784 191.795 221.097 192.285 219.033C192.472 218.227 196.122 222.844 196.558 222.382C197.038 221.877 197.338 221.36 197.372 220.778C197.396 220.329 197.385 219.878 197.338 219.431C197.317 219.219 197.289 219.004 197.257 218.792C196.914 216.549 192.632 217.505 192.632 217.505C194.2 213.722 202.558 214.025 202.556 214.124C202.554 214.224 202.556 214.357 202.556 214.74C202.543 216.281 202.556 220.237 203.049 220.984C203.667 221.924 214.945 226 215.542 224.741C216.138 223.483 214.521 217.669 214.461 217.447C215.405 217.861 216.32 218.339 217.198 218.879C218.61 221.715 220.604 226.652 218.845 231.329Z" fill="#2B478B"/>
<path d="M211.254 189.677C211.241 189.302 210.945 185.169 204.665 184.949C204.665 184.949 207.754 185.325 208.287 186.677C208.287 186.677 206.184 184.998 204.471 185.537C202.759 186.076 201.754 189.082 201.744 190.07C201.735 191.058 202.682 194.244 203.772 194.515C204.205 194.602 204.652 194.602 205.085 194.515C204.775 194.999 204.493 195.501 204.241 196.017C201.735 201.168 204.32 206.203 206.441 205.646C207.801 205.29 208.185 207.613 208.185 207.613L221.404 196.906C221.404 196.906 216.546 186.845 211.254 189.677Z" fill="#BC3F3F"/>
<path d="M215.267 209.572C215.267 209.572 214.591 211.639 214.092 213.632C210.369 212.593 209.24 208.674 208.9 206.574L215.267 209.572Z" fill="#ED985F"/>
<path d="M216.05 211.764C216.05 211.764 207.146 209.698 208.515 204.167C209.885 198.637 209.656 194.64 215.399 195.714C221.143 196.789 221.72 199.184 221.713 201.141C221.705 203.099 218.402 212.159 216.05 211.764Z" fill="#FFB27D"/>
<path d="M222.213 198.016C221.255 196.01 220.129 196.117 219.424 196.472C215.239 192.594 211.135 195.762 211.135 195.762C210.141 198.083 208.373 199.986 206.133 201.145C206.133 201.145 207.502 202.549 211.466 202.517C212.677 202.507 213.895 201.953 215.003 201.183C213.62 202.545 212.057 203.712 210.359 204.651C215.322 203.7 218.651 197.946 218.987 197.336C219.409 197.958 220.212 199.28 220.28 200.398C220.371 201.917 219.85 204.867 220.718 204.978C220.722 204.978 223.648 201.023 222.213 198.016Z" fill="#BC3F3F"/>
<path d="M194.276 346.15H180.136C180.136 346.15 179.797 343.991 180.536 342.353C181.243 340.783 182.352 340.069 182.085 338.168C182.984 339.094 184.449 340.131 186.493 339.859C186.743 340.264 188.11 342.442 188.947 343.043C189.871 343.706 193.998 343.469 194.276 346.15Z" fill="#233862"/>
<path d="M224.635 346.152H210.504C210.504 346.152 209.977 343.897 210.903 342.355C211.727 340.995 211.412 340.221 210.802 339.096C211.553 339.422 212.367 339.575 213.184 339.545C213.888 339.505 214.634 339.184 215.287 338.805C215.895 339.5 218.502 342.456 219.316 343.043C220.229 343.708 224.35 343.471 224.635 346.152Z" fill="#233862"/>
<path d="M243.869 222.801H265.389L264.194 214.441L244.978 215.213L243.869 222.801Z" fill="#35ECB7"/>
<path d="M247.643 206.816C246.64 207.816 246.662 211.024 244.547 212.535C242.269 214.159 241.358 215.829 240.549 216.667C240.251 217.011 240.067 217.199 240.067 217.199L237.629 214.366C237.67 214.335 237.707 214.299 237.74 214.259C238.284 213.665 239.664 212.193 240.581 210.517C242.596 206.822 245.413 206.275 245.413 206.275C245.413 206.275 246.857 206.212 247.643 206.816Z" fill="#FFB27D"/>
<path d="M239.129 212.141L242.716 216.161C242.716 216.161 233.131 224.516 231.129 226.254C229.707 227.465 228.364 228.453 227.271 229.019C227.163 229.077 227.052 229.127 226.937 229.169C224.123 230.401 218.046 230.264 211.974 229.357C211.134 229.235 210.305 229.094 209.495 228.964C206.72 228.499 203.983 227.832 201.305 226.969C200.063 226.589 198.856 226.103 197.696 225.517C197.374 225.359 197.061 225.182 196.758 224.988C192.011 222.14 192.24 219.493 192.33 218.543C192.42 217.592 193.104 216.337 194.689 215.822C198.458 214.598 211.098 219.478 212.961 219.831C214.086 220.068 216.986 221.097 217.963 221.278C219.839 221.612 221.383 221.83 222.441 221.841C223.125 221.841 224.335 221.422 225.797 220.776C228.338 219.658 239.129 212.141 239.129 212.141Z" fill="#253D78"/>
<path d="M240.538 224.26C240.24 223.768 240.21 222.972 240.21 222.972C240.624 221.909 241.542 220.718 241.883 220.475C242.224 220.233 242.673 219.664 242.78 220.047C242.887 220.43 242.375 222.442 241.776 223.24C241.461 223.684 241.034 224.036 240.538 224.26Z" fill="#FFB27D"/>
<path d="M453.752 176.034C456.77 181.293 460.564 183.322 460.564 183.322H476.351C476.351 183.322 451.45 172.021 453.752 176.034Z" fill="#ED7D2B"/>
<path d="M464.939 216.992C465.349 217.465 465.706 217.439 465.501 218.002C465.501 218.002 465.409 218.282 465.407 218.284C465.032 219.325 464.32 220.057 462.875 221.218C462.688 221.369 462.5 221.493 462.359 221.618C462.322 221.65 462.067 221.703 462.031 221.735C461.996 221.767 461.778 222.225 461.75 222.25C460.403 223.493 460.677 223.132 458.257 225.657C455.496 228.533 455.577 228.236 455.037 227.973C454.579 227.75 454.389 227.222 455.412 225.501C455.462 225.419 455.511 225.334 455.562 225.25C455.699 225.022 455.836 224.791 455.971 224.562C457.179 222.496 456.867 221.53 456.582 218.459C456.35 215.964 452.705 204.518 452.705 204.518L457.995 203.605C457.995 203.605 459.587 212.72 461.343 214.125C462.281 214.876 463.333 214.876 464.233 215.44C464.297 215.478 464.361 215.517 464.421 215.558C464.942 215.895 464.526 216.518 464.939 216.992Z" fill="#FFB27D"/>
<path d="M465.876 216.72C466.064 216.928 466.189 217.186 466.236 217.463C466.282 217.74 466.247 218.025 466.136 218.283C465.675 219.324 464.461 220.483 463.066 221.64C462.878 221.792 462.723 221.931 462.578 222.063L462.467 222.162L462.383 222.237C461.036 223.483 461.543 223.766 459.121 226.291C456.362 229.167 454.462 229.22 453.922 228.957C453.464 228.733 454.392 227.208 455.422 225.495C457.353 224.739 459.05 223.486 460.342 221.864C462.004 219.739 463.113 217.01 464.244 215.43C464.308 215.467 464.371 215.507 464.431 215.548C464.963 215.872 465.449 216.266 465.876 216.72Z" fill="#BC3F3F"/>
<path d="M422.244 213.092C421.915 214.728 420.857 214.268 418.258 213.633C415.658 212.998 416.26 213.62 412.559 213.211C408.858 212.801 408.523 212.211 408.41 211.661C408.309 211.171 409.082 210.84 411.036 210.614L411.777 210.526C413.992 210.246 415.613 208.817 417.626 207.641C419.529 206.529 422.373 201.992 422.373 201.992L427.449 202.394C427.449 202.394 424.785 206.446 423.755 208.206C423.15 209.243 423.181 210.613 423.256 211.67C423.303 212.251 422.358 212.517 422.244 213.092Z" fill="#FFB27D"/>
<path d="M417.97 214.134C415.37 213.499 415.989 214.254 412.289 213.844C408.588 213.435 407.466 212.052 407.354 211.5C407.252 211.012 409.081 210.839 411.043 210.613L411.06 210.651C412.646 211.67 414.478 212.24 416.361 212.3C418.871 212.362 421.53 211.641 423.264 211.669C423.328 212.248 423.315 212.833 423.224 213.408C422.898 215.048 420.572 214.776 417.97 214.134Z" fill="#BC3F3F"/>
<path d="M442.674 180.917L447.419 193.702L453.609 210.396C454.715 210.478 455.827 210.376 456.899 210.095C458.381 209.665 460.088 208.544 460.088 208.544C460.088 208.544 458.368 190.619 455.159 180.331C454.337 177.689 453.416 175.552 452.399 174.349C447.423 168.464 442.674 180.917 442.674 180.917Z" fill="#ED7D2B"/>
<path d="M447.499 160.606C450.607 159.603 459.471 160.891 468.377 162.636L470.242 159.557L489.475 158.055C489.475 158.055 495.812 172.143 492.347 181.132C491.505 183.32 488.749 183.32 488.749 183.32H473.646C464.08 183.32 453.401 176.746 452.021 176.458C449.759 176.006 448.855 180.535 446.594 185.287C444.334 190.04 425.341 206.347 425.341 206.347C425.341 206.347 422.42 206.377 421.214 205.923C419.916 205.436 419.441 204.795 419.441 204.795C419.441 204.795 440.489 162.871 447.499 160.606Z" fill="#F99746"/>
<path d="M470.354 133.031C477.202 136.808 491.097 144.638 491.174 144.587C491.174 144.587 496.282 146.515 499.178 144.587C504.008 141.375 506.596 132.73 497.765 125.291C493.361 121.581 490.233 120.68 489.756 114.755C489.499 111.541 485.112 100.935 477.823 101.915C477.215 102.007 476.601 102.047 475.986 102.036C474.688 101.996 473.405 102.328 472.287 102.992C468.159 105.453 460.086 131.569 470.354 133.031Z" fill="#233862"/>
<path d="M476.094 129.814C476.064 129.832 479.47 130.995 481.738 129.986C483.878 129.047 485.489 125.516 485.465 125.514C484.493 125.469 483.424 124.618 482.603 119.027L482.188 119.176L475.222 121.685C475.222 121.685 475.726 123.925 476.053 126.057C476.328 127.845 476.482 129.56 476.094 129.814Z" fill="#FFB27D"/>
<path d="M475.222 121.689C475.222 121.689 475.726 123.929 476.053 126.061C480.054 125.339 481.624 121.346 482.188 119.18L475.222 121.689Z" fill="#ED975D"/>
<path d="M474.184 123.91C474.184 123.91 483.714 122.629 482.827 116.697C481.94 110.764 482.57 106.606 476.45 107.173C470.329 107.74 469.485 110.178 469.301 112.232C469.118 114.285 471.682 124.091 474.184 123.91Z" fill="#FFB27D"/>
<path d="M469.646 108.981C469.646 108.981 475.748 114.241 479.899 114.673C484.05 115.105 485.62 113.762 485.62 113.762C483.964 112.278 482.63 110.468 481.702 108.446C481.49 107.97 481.155 107.56 480.732 107.257C480.309 106.954 479.813 106.77 479.295 106.723C476.332 106.467 470.716 106.351 469.646 108.981Z" fill="#233862"/>
<path d="M473.461 108.513C473.461 108.513 471.419 110.491 470.777 111.956C470.156 113.37 469.971 116.754 470.464 118.099C470.464 118.099 467.275 111.9 469.085 108.894C470.995 105.706 473.461 108.513 473.461 108.513Z" fill="#233862"/>
<path d="M468.069 143.874C468.356 163.194 468.148 159.157 470.258 160.991C470.767 161.432 472.196 161.695 474.077 161.819C479.993 162.214 490.396 161.237 490.788 160.142C492.154 156.353 491.189 155.177 492.328 149.376C492.448 148.76 492.594 148.091 492.767 147.364C493.716 143.382 494.643 142.025 491.266 135.625C488.213 129.828 485.039 125.123 484.754 125.294C476.688 130.084 476.047 126.056 476.047 126.056C476.047 126.056 467.929 134.451 468.069 143.874Z" fill="#BC3F3F"/>
<path d="M447.419 193.695L453.609 210.39C454.715 210.471 455.826 210.37 456.899 210.089C458.381 209.659 460.088 208.537 460.088 208.537C460.088 208.537 458.368 190.613 455.158 180.324L447.419 193.695Z" fill="#F99746"/>
<path d="M476.052 126.062C476.052 126.062 467.761 127.469 466.788 131.044C465.814 134.619 460.086 155.636 460.086 155.636C460.086 155.636 464.301 156.387 466.248 154.443C468.195 152.499 473.023 136.353 473.023 136.353L476.052 126.062Z" fill="#BC3F3F"/>
<path d="M474.077 161.825C479.993 162.219 490.396 161.242 490.788 160.147C492.154 156.358 491.189 155.182 492.328 149.382L489.475 141.336C489.475 141.336 489.948 150.296 487.309 152.652C484.669 155.008 476.504 157.202 475.221 159.17C474.606 160.117 474.197 161.064 474.077 161.825Z" fill="#992525"/>
<path d="M480.855 158.058C480.855 158.058 475.018 156.756 474.076 157.274C473.135 157.793 470.833 159.683 470.546 160.34C470.259 160.998 472.641 159.84 473.418 159.634C473.921 159.498 475.243 159.959 475.898 160.177C478.651 161.095 480.339 160.624 480.339 160.624L480.855 158.058Z" fill="#FFB27D"/>
<path d="M484.766 125.297C484.766 125.297 492.603 125.782 495.315 129.57C499.134 134.905 506.71 157.637 502.368 160.669C497.48 164.084 480.116 161.563 480.116 161.563C480.116 161.563 479.536 158.858 480.341 157.551C481.146 156.243 494.21 154.128 494.812 153.523C495.414 152.918 487.276 141.749 487.276 139.936C487.276 138.123 484.766 125.297 484.766 125.297Z" fill="#BC3F3F"/>
<path d="M473.795 158.902C473.795 158.902 472.572 160.482 472.171 160.672C471.969 160.781 471.74 160.83 471.511 160.813L472.336 159.327L473.795 158.902Z" fill="#FFB27D"/>
<path d="M474.077 157.273L470.522 159.004C470.592 159.09 470.683 159.156 470.787 159.196C470.89 159.236 471.002 159.248 471.111 159.231C471.549 159.21 472.653 158.806 472.653 158.806L474.077 157.273Z" fill="#FFB27D"/>
<path d="M472.172 163.085H444.047L435.586 142.016H463.667L472.172 163.085Z" fill="#163560"/>
<path d="M443.716 162.266H480.855V163.087H444.046L443.716 162.266Z" fill="#11294A"/>
<path d="M451.147 152.556C450.935 151.816 451.363 151.215 452.102 151.215C452.491 151.236 452.865 151.376 453.173 151.616C453.481 151.856 453.708 152.184 453.826 152.556C454.038 153.296 453.61 153.897 452.871 153.897C452.481 153.876 452.108 153.736 451.8 153.496C451.492 153.256 451.264 152.929 451.147 152.556Z" fill="white"/>
<path d="M584.282 358.013H44.5515C44.3614 358.008 44.1792 357.33 44.0447 356.126C43.9102 354.922 43.8345 353.291 43.834 351.588C43.8345 349.886 43.9102 348.254 44.0447 347.051C44.1792 345.847 44.3614 345.169 44.5515 345.164H584.282C584.472 345.169 584.654 345.847 584.789 347.051C584.923 348.254 584.999 349.886 585 351.588C584.999 353.291 584.923 354.922 584.789 356.126C584.654 357.33 584.472 358.008 584.282 358.013Z" fill="#35ECB7"/>
</g>
<defs>
<clipPath id="clip0_2389_13857">
<rect width="543" height="279" fill="white" transform="translate(42 68)"/>
</clipPath>
</defs>
</svg>
