<svg width="656" height="519" viewBox="0 0 656 519" fill="none" xmlns="http://www.w3.org/2000/svg">
<g clip-path="url(#clip0_374_369)">
<path d="M587.507 411.711L570.24 420.753L580.381 409.795C573.391 408.104 567.87 406.936 559.92 405.589L536.938 422.295L551.144 404.107C542.143 402.819 537.388 402.071 528.297 401.981C519.416 411.292 509.425 420.678 509.425 420.678L517.436 401.906C506.635 402.221 496.269 403.703 487.164 406.951C485.694 407.475 487.089 406.951 485.694 407.475L473.813 421.367L476.288 411.217C439.28 427.295 437.525 445.573 437.525 445.573C437.525 445.573 437.975 446.187 439.025 447.265C439.82 448.073 440.96 449.151 442.505 450.393C448.536 455.318 460.747 462.968 482.753 468.581L476.573 456.381L490.329 468.626C492.129 468.791 493.989 468.956 495.894 469.061C502.03 469.45 501.235 470.049 507.775 469.001L499 452.085L517.226 467.623C521.066 466.935 524.952 466.037 528.822 464.974L516.866 450.947L537.598 462.07C544.843 459.884 547.349 458.896 554.354 455.902L541.768 441.441L563.43 451.576C573.856 446.86 573.376 446.95 581.851 442.04L569.565 431.067L588.902 438.597C602.928 430.139 616.459 420.529 616.459 420.529C616.459 420.529 606.183 416.517 587.492 411.741L587.507 411.711Z" fill="#CDEEE7"/>
<path d="M563.745 329.826L549.809 348.508L555.074 331.443C546.644 333.239 540.088 334.826 530.802 337.475L514.676 367.4L520.572 340.41C510.191 343.688 504.67 345.335 494.8 349.93C490.044 364.571 484.149 379.87 484.149 379.87L483.039 355.469C471.548 361.397 461.122 368.358 452.976 376.576C451.671 377.909 452.886 376.606 451.671 377.909L446.061 399.031L443.45 386.801C411.858 423.297 419.464 443.925 419.464 443.925C419.464 443.925 420.274 444.359 421.954 444.973C423.229 445.422 425.029 446.021 427.339 446.56C436.4 448.761 453.561 450.692 480.233 445.362L467.227 435.393L488.424 441.5C490.464 440.752 492.534 439.973 494.65 439.09C501.475 436.351 500.92 437.399 507.431 432.878L489.174 419.165L516.911 426.501C520.707 423.776 524.412 420.797 528.057 417.638L507.881 408.687L536.023 409.974C542.698 403.866 544.904 401.501 550.904 394.645L529.812 385.543L558.45 385.274C567.255 374.795 566.775 375.139 573.391 365.454L554.429 359.975L579.211 358.089C589.967 341.712 599.568 324.332 599.568 324.332C599.568 324.332 586.382 325.32 563.745 329.826Z" fill="#A5E3D7"/>
<path d="M518.546 275.935L505.555 303.689L507.806 280.292C497.425 284.827 489.384 288.615 478.118 294.498L465.292 337.326L465.712 300.995C453.201 307.971 446.526 311.548 435.035 320.081C432.8 340.201 429.259 361.488 429.259 361.488L421.339 330.336C408.108 341.024 396.527 352.745 388.216 365.484C386.881 367.55 388.111 365.544 386.881 367.55L385.276 396.262L378.66 381.188C347.653 436.576 362.924 461.141 362.924 461.141C362.924 461.141 364.079 461.485 366.419 461.845C368.174 462.099 370.65 462.384 373.785 462.459C386.056 462.893 408.678 460.842 441.62 446.935L422.209 437.519L451.146 439.764C453.561 438.252 456.036 436.696 458.542 435.004C466.612 429.66 466.177 431.157 473.363 423.612L446.181 410.768L483.879 412.879C488.034 408.358 492.039 403.538 495.88 398.523L467.497 392.325L504.115 386.532C511.106 376.891 513.311 373.269 519.221 362.85L489.624 356.712L526.467 348.793C535.033 332.955 534.508 333.539 540.448 319.303L514.556 317.252L545.984 308.27C555.479 284.318 563.25 259.379 563.25 259.379C563.25 259.379 546.524 264.139 518.546 275.95V275.935Z" fill="#7BCCBE"/>
<path d="M83.2716 467.609C83.2716 467.609 66.8453 331.534 71.1207 321.923C83.4216 294.214 173.489 279.379 173.489 279.379V467.609H83.2716Z" fill="#3D4051"/>
<path d="M0 467.609V474.39H606.138C608.013 474.39 609.543 472.893 609.543 470.992C609.543 469.091 608.013 467.594 606.138 467.594H0.0150146L0 467.609Z" fill="#008F69"/>
<path d="M25.3521 211.133C25.3521 214.232 27.8723 216.747 30.9776 216.747C34.0828 216.747 36.603 214.232 36.603 211.133C36.603 208.034 34.0828 205.52 30.9776 205.52C27.8723 205.52 25.3521 208.034 25.3521 211.133Z" fill="white"/>
<path opacity="0.5" d="M25.3521 248.063C25.3521 251.162 27.8723 253.677 30.9776 253.677C34.0828 253.677 36.603 251.162 36.603 248.063C36.603 244.964 34.0828 242.449 30.9776 242.449C27.8723 242.449 25.3521 244.964 25.3521 248.063Z" fill="white"/>
<path opacity="0.5" d="M25.2921 284.993C25.2921 288.091 27.8123 290.606 30.9175 290.606C34.0228 290.606 36.543 288.091 36.543 284.993C36.543 281.894 34.0228 279.379 30.9175 279.379C27.8123 279.379 25.2921 281.894 25.2921 284.993Z" fill="white"/>
<path opacity="0.5" d="M25.3521 321.922C25.3521 325.021 27.8723 327.536 30.9776 327.536C34.0828 327.536 36.603 325.021 36.603 321.922C36.603 318.824 34.0828 316.309 30.9776 316.309C27.8723 316.309 25.3521 318.824 25.3521 321.922Z" fill="white"/>
<path opacity="0.5" d="M25.2921 358.856C25.2921 361.955 27.8123 364.469 30.9175 364.469C34.0228 364.469 36.543 361.955 36.543 358.856C36.543 355.757 34.0228 353.242 30.9175 353.242C27.8123 353.242 25.2921 355.757 25.2921 358.856Z" fill="white"/>
<path d="M246.47 159.771C235.204 159.771 229.083 149.277 218.913 144.457C205.156 152.825 194.911 174.636 191.67 190.384C188.43 206.132 184.755 223.422 172.019 233.243C164.938 238.707 155.983 241.012 147.342 243.317C138.686 245.623 129.76 248.182 122.98 254.006C116.199 259.829 112.164 269.844 115.944 277.942C104.183 280.188 94.5226 290.547 91.3124 302.059C88.1021 313.57 90.9673 326.339 97.7629 336.19C104.558 346.025 115.014 353.046 126.355 356.893H246.485C257.391 354.228 270.052 350.725 280.012 345.561C289.973 340.396 298.914 332.432 302.994 321.983C307.06 311.549 305.349 298.481 297.069 290.921C292.718 286.939 286.538 284.17 284.828 278.526C283.463 274.05 285.488 269.23 288.083 265.338C290.678 261.431 293.919 257.853 295.419 253.407C298.374 244.68 293.753 235.054 287.408 228.347C281.062 221.641 273.022 216.701 266.796 209.89C254.885 196.851 249.62 177.136 246.485 159.771H246.47Z" fill="#FFD175"/>
<path d="M206.282 260.474L250.595 275.983L254.646 253.573L261.681 214.651L216.288 202.227L210.902 233.558L206.282 260.474Z" fill="#FFB485"/>
<path d="M210.902 233.559C221.988 242.75 243.11 255.684 253.671 258.963L261.681 214.652L216.288 202.242L210.902 233.574V233.559Z" fill="#FF9B70"/>
<path d="M265.521 243.139C248.51 249.95 215.522 221.598 212.852 212.017C210.167 202.436 222.693 159.189 230.268 155.701C237.829 152.213 255.515 139.818 280.942 156.793C280.942 156.793 289.808 161.434 290.378 168.889C290.483 170.371 290.813 173.694 291.023 178.17C291.083 179.263 291.098 180.431 291.128 181.658C291.578 200.625 289.088 233.678 265.506 243.124L265.521 243.139Z" fill="#FFB485"/>
<path d="M255.711 189.667C254.96 191.808 252.62 192.931 250.475 192.182C248.33 191.434 247.205 189.098 247.955 186.958C248.705 184.817 251.045 183.694 253.19 184.443C255.335 185.191 256.461 187.527 255.711 189.667Z" fill="#3D4051"/>
<path d="M283.943 193.515C283.328 195.267 281.408 196.18 279.653 195.566C277.897 194.952 276.982 193.036 277.597 191.285C278.212 189.533 280.133 188.62 281.888 189.234C283.643 189.848 284.558 191.764 283.943 193.5V193.515Z" fill="#3D4051"/>
<path d="M233.589 211.361C228.547 210.472 225.182 205.672 226.073 200.641C226.964 195.609 231.773 192.251 236.815 193.14C241.857 194.029 245.222 198.829 244.331 203.86C243.44 208.892 238.631 212.25 233.589 211.361Z" fill="#FF9B70"/>
<path d="M268.161 178.962C267.861 175.25 265.026 172.001 261.231 171.417C259.431 171.133 257.571 171.178 255.8 171.567C251.96 172.405 248.57 174.86 246.665 178.169C253.61 175.729 261.546 175.938 268.191 179.381C268.191 179.247 268.176 179.097 268.161 178.947V178.962Z" fill="#FFD175"/>
<path d="M291.144 181.689C287.723 180.94 284.123 181.075 280.763 182.258C280.793 182.183 280.823 182.063 280.838 181.958C281.408 179.354 283.748 177.318 286.478 177.288C287.798 177.258 289.118 177.482 290.318 177.902C290.558 177.976 290.799 178.096 291.024 178.201C291.084 179.294 291.099 180.461 291.129 181.689H291.144Z" fill="#FFD175"/>
<path d="M205.337 201.195C206.507 206.958 210.302 211.389 214.742 212.871L222.993 193.515L224.013 187.617C221.253 184.983 217.653 183.68 214.082 184.399C207.632 185.731 203.687 193.231 205.322 201.18L205.337 201.195Z" fill="#FF9B70"/>
<path d="M273.952 199.157C272.497 194.426 273.322 189.576 275.782 185.34C276.652 183.843 274.327 182.495 273.457 183.992C271.222 187.825 270.157 192.046 270.667 196.492C270.862 198.199 271.282 199.89 271.942 201.477C272.047 201.746 273.457 203.932 273.427 204.381C273.142 207.734 270.052 208.378 267.412 208.154C265.686 208.004 265.701 210.683 267.412 210.833C270.352 211.088 276.157 210.429 276.877 206.701C277.387 204.037 274.687 201.537 273.967 199.157H273.952Z" fill="#FF9B70"/>
<path d="M208.367 187.855L209.267 187.316C209.267 187.316 209.327 187.271 209.372 187.256C210.872 186.388 212.552 185.969 214.187 185.969C218.027 185.984 221.658 188.289 222.753 192.226C222.858 192.645 222.948 193.05 223.008 193.514C223.008 193.514 239.899 184.397 261.666 156.224C261.666 156.224 277.717 175.31 291.143 175.116C291.143 175.116 293.363 154.757 278.962 142.527H278.917C275.152 139.308 270.202 136.658 263.796 135.117C259.071 133.949 253.505 133.38 247.025 133.59C198.886 135.236 208.367 187.855 208.367 187.855Z" fill="#FFD175"/>
<path d="M130.795 277.478C146.922 263.107 206.281 260.473 206.281 260.473L252.83 263.616C252.83 263.616 299.484 272.389 303.519 277.463C307.554 282.538 351.238 355.575 351.238 355.575L338.457 358.345L351.238 385.74L315.475 415.829L303.369 396.173L291.503 467.609H156.132L153.627 387.76L143.501 406.233L93.9974 396.188C93.9974 396.188 114.639 291.864 130.78 277.493L130.795 277.478Z" fill="#6066F8"/>
<path d="M196.02 467.608H266.031C266.031 467.608 275.362 378.898 278.932 340.41C279.832 330.71 278.632 321.04 276.322 311.968C269.451 285.052 252.83 263.616 252.83 263.616L206.296 260.457C206.296 260.457 212.837 288.795 216.167 315.186C217.127 322.881 217.802 330.426 217.982 337.042C218.717 366.398 196.035 467.608 196.035 467.608H196.02Z" fill="#F0E7D6"/>
<path d="M206.282 260.457C206.282 260.457 212.822 288.795 216.152 315.186C216.287 315.276 216.392 315.336 216.527 315.426C223.023 319.513 231.319 321.234 238.519 318.555C245.705 315.875 251.12 308.211 249.89 300.666C253.505 306.01 258.651 310.606 264.876 312.357C268.582 313.405 272.692 313.285 276.322 311.968C269.452 285.052 252.83 263.616 252.83 263.616L206.297 260.457H206.282Z" fill="#F7F3EC"/>
<path d="M400.157 279.783C400.157 279.783 412.233 274.783 414.708 277.373C417.183 279.963 400.847 291.355 400.847 291.355L400.487 283.945L400.157 279.783Z" fill="#FF9B70"/>
<path d="M413.448 257.285C411.708 256.446 409.502 258.542 398.582 276.057C407.222 258.378 407.882 253.797 406.757 253.198C405.527 252.539 402.722 256.072 392.536 273.632C399.947 257.973 402.032 250.533 400.187 250.533C397.171 250.518 388.846 264.845 385.666 270.518C388.906 264.515 393.871 248.348 392.326 247.39C389.461 245.623 369.614 280.144 369.614 280.144C355.888 283.482 359.533 300.832 359.533 300.832L385.456 301.401C385.456 301.401 399.362 293.437 400.862 291.371C402.362 289.305 417.513 259.276 413.448 257.315V257.285Z" fill="#FFB485"/>
<path d="M385.456 309.499L388.441 301.116L357.238 294.215V303.975L385.456 309.499Z" fill="#F7F3EC"/>
<path d="M309.055 405.379C309.055 405.379 327.311 437.369 336.447 440.992C338.922 441.98 343.377 441.351 346.948 437.998C358.424 427.19 365.834 414.645 368.714 398.702L390.226 310.456L352.333 302.836C352.333 302.836 325.451 368.044 309.055 405.379Z" fill="#21B890"/>
<path d="M252.29 457.176H494.154V467.61H252.29V457.176Z" fill="#004B85"/>
<path d="M323.486 467.608H494.154L514.571 348.449C515.291 344.242 512.051 340.41 507.775 340.41H351.103C347.743 340.41 344.877 342.82 344.307 346.129L323.486 467.608Z" fill="#3D4051"/>
<path d="M427.159 418.178C436.189 418.178 443.54 410.843 443.54 401.831C443.54 392.82 436.189 385.484 427.159 385.484C418.128 385.484 410.777 392.82 410.777 401.831C410.777 410.843 418.128 418.178 427.159 418.178ZM427.159 391.218C433.024 391.218 437.795 395.978 437.795 401.831C437.795 407.684 433.024 412.445 427.159 412.445C421.293 412.445 416.538 407.684 416.538 401.831C416.538 395.978 421.308 391.218 427.159 391.218Z" fill="white"/>
<path d="M249.995 211.508C253.91 215.58 259.296 217.586 265.236 217.211C267.952 217.032 267.937 220.864 265.236 221.029C258.276 221.478 251.585 218.963 247.01 214.202C245.24 212.361 248.21 209.637 249.995 211.508Z" fill="#FF9B70"/>
<path d="M208.757 190.49L213.047 191.149C213.062 191.059 213.392 189.098 214.187 185.969C216.647 176.134 223.683 154.922 240.079 144.892C250.61 138.455 264.261 137.767 278.932 142.527C275.167 139.309 270.216 136.659 263.811 135.117C254.195 134.444 245.479 136.494 237.799 141.21C218.402 153.081 211.352 178.26 209.387 187.257C208.997 189.083 208.817 190.251 208.772 190.49H208.757Z" fill="#004456"/>
<path d="M247.085 235.969L248.39 231.822C224.103 224.203 213.017 199.173 212.912 198.934L208.907 200.655C209.387 201.763 220.847 227.765 247.085 235.984V235.969Z" fill="#004456"/>
<path d="M210.107 210.206C202.319 210.206 196.006 203.906 196.006 196.134C196.006 188.363 202.319 182.062 210.107 182.062C217.895 182.062 224.208 188.363 224.208 196.134C224.208 203.906 217.895 210.206 210.107 210.206Z" fill="#005A67"/>
<path d="M210.107 203.949C205.782 203.949 202.276 200.45 202.276 196.135C202.276 191.819 205.782 188.32 210.107 188.32C214.432 188.32 217.938 191.819 217.938 196.135C217.938 200.45 214.432 203.949 210.107 203.949Z" fill="#004456"/>
<path d="M243.394 235.115C243.394 239.771 247.175 243.543 251.84 243.543C256.505 243.543 260.286 239.771 260.286 235.115C260.286 230.46 256.505 226.688 251.84 226.688C247.175 226.688 243.394 230.46 243.394 235.115Z" fill="#005A67"/>
<path d="M217.788 463.644C217.788 463.644 91.5976 465.755 87.3222 457.043C86.2721 454.872 86.1371 450.037 86.5722 443.974C87.8323 425.651 94.0127 396.176 94.0127 396.176L143.517 406.22L139.091 417.029L214.142 429.918L217.773 463.659L217.788 463.644Z" fill="#21B890"/>
<path d="M239.599 433.167L223.233 437.793L225.963 459.35C228.693 461.161 236.314 462.388 236.314 462.388C239.719 463.062 250.925 460.068 250.925 460.068C250.925 460.068 275.527 463.96 275.347 461.071C275.167 458.167 256.37 453.646 256.37 453.646C256.37 453.646 283.238 461.161 281.332 457.179C279.427 453.197 263.481 447.404 263.481 447.404C266.931 448.736 284.678 455.353 285.518 454.11C286.943 451.984 281.242 448.152 267.981 441.431C267.981 441.431 283.778 449.35 286.598 447.838C289.418 446.326 273.562 438.033 266.541 434.904C259.206 431.64 253.475 431.191 253.475 431.191L239.599 433.182V433.167Z" fill="#FFB485"/>
<path d="M252.83 263.616C252.83 263.616 265.716 296.819 252.83 306.594C239.944 316.384 206.281 260.457 206.281 260.457C206.281 260.457 237.394 256.864 252.83 263.601V263.616Z" fill="#FFB485"/>
<path d="M214.577 433.807L222.633 431.172L226.683 462.384H217.652L214.577 433.807Z" fill="#F7F3EC"/>
<path d="M278.917 340.413C277.087 360.008 273.772 392.642 270.981 419.947C280.042 401.145 298.899 362.029 300.939 356.894C303.669 350.083 291.128 333.242 291.128 333.242C291.128 333.242 298.749 326.715 298.494 316.311C298.269 308.138 279.142 279.351 270.936 267.345C261.066 265.175 252.815 263.633 252.815 263.633C252.815 263.633 269.436 285.069 276.307 311.985C278.617 321.057 279.817 330.727 278.917 340.428V340.413Z" fill="#979BFC"/>
<path d="M176.864 356.892C176.489 363 194.355 411.517 203.026 434.63C209.626 402.37 218.402 355.5 217.952 337.042C217.772 330.426 217.097 322.881 216.137 315.186C212.807 288.795 206.266 260.457 206.266 260.457C206.266 260.457 197.205 260.846 185.19 262.194H185.174C181.469 281.37 175.589 314.154 177.119 321.923C179.294 333.06 191.625 340.41 191.625 340.41C191.625 340.41 177.359 348.823 176.849 356.892H176.864Z" fill="#979BFC"/>
<path d="M30.4076 467.505H147.327V435.305H30.4076C22.532 435.305 16.1265 441.682 16.1265 449.556L16.1265 453.268C16.1265 461.127 22.517 467.52 30.4076 467.52V467.505Z" fill="#00B192"/>
<path d="M147.342 459.976H30.0325C26.5822 459.976 23.792 456.413 23.792 452.027C23.792 447.626 26.5822 444.078 30.0325 444.078H147.342" fill="white"/>
<path d="M44.5683 435.274H161.488V403.074H44.5683C36.6926 403.074 30.2871 409.451 30.2871 417.325L30.2871 421.038C30.2871 428.897 36.6776 435.289 44.5683 435.289V435.274Z" fill="#FFD175"/>
<path d="M161.488 427.746H44.1785C40.7282 427.746 37.938 424.183 37.938 419.797C37.938 415.395 40.7282 411.848 44.1785 411.848H161.488" fill="white"/>
<path d="M472.208 157.331L420.528 106.793L368.864 157.331L420.528 202.959L472.208 157.331Z" fill="#F9A31A"/>
<path d="M384.946 197.554V129.711H456.141V197.554H384.946Z" fill="white"/>
<path d="M472.208 157.332L420.528 202.96V218.169H472.208V157.332Z" fill="#FFC13E"/>
<path d="M368.864 157.332L420.528 202.96V218.169H368.864V157.332Z" fill="#FFC13E"/>
<path d="M472.208 218.167L420.528 181.73L368.864 218.167H472.208Z" fill="#FFD175"/>
<path d="M418.473 141.508H394.696V145.16H418.473V141.508Z" fill="#3D4051"/>
<path d="M446.375 150.219H394.696V153.871H446.375V150.219Z" fill="#3D4051"/>
<path d="M446.375 158.934H394.696V162.586H446.375V158.934Z" fill="#3D4051"/>
<path d="M446.375 167.645H394.696V171.297H446.375V167.645Z" fill="#3D4051"/>
<path d="M393.181 106.628L383.475 101.793L375.78 128.724L393.181 106.628Z" fill="white"/>
<path d="M351.403 120.176L345.897 127.271L366.629 137.885L351.403 120.176Z" fill="white"/>
<path d="M369.344 92.4531L352.873 95.971L371.879 135.267L369.344 92.4531Z" fill="white"/>
<path d="M146.112 168.023L162.163 201.077L123.34 181.421L146.112 168.023Z" fill="white"/>
<path d="M71.7509 130.492H140.426C144.312 130.492 147.462 133.636 147.462 137.513V176.809C147.462 180.686 144.312 183.829 140.426 183.829H71.7509C67.8653 183.829 64.7153 180.686 64.7153 176.809V137.513C64.7153 133.636 67.8653 130.492 71.7509 130.492Z" fill="white"/>
<path d="M123.34 157.154C123.34 160.193 125.8 162.648 128.846 162.648C131.891 162.648 134.351 160.193 134.351 157.154C134.351 154.115 131.891 151.66 128.846 151.66C125.8 151.66 123.34 154.115 123.34 157.154Z" fill="#3D4051"/>
<path d="M100.583 157.154C100.583 160.193 103.044 162.648 106.089 162.648C109.134 162.648 111.594 160.193 111.594 157.154C111.594 154.115 109.134 151.66 106.089 151.66C103.044 151.66 100.583 154.115 100.583 157.154Z" fill="#3D4051"/>
<path d="M77.8265 157.154C77.8265 160.193 80.2867 162.648 83.3319 162.648C86.3771 162.648 88.8374 160.193 88.8374 157.154C88.8374 154.115 86.3771 151.66 83.3319 151.66C80.2867 151.66 77.8265 154.115 77.8265 157.154Z" fill="#3D4051"/>
<path d="M548.984 42.4698C548.984 45.5087 551.459 47.9787 554.504 47.9787C557.549 47.9787 560.024 45.5087 560.024 42.4698C560.024 39.4309 557.549 36.9609 554.504 36.9609C551.459 36.9609 548.984 39.4309 548.984 42.4698Z" fill="#008F69"/>
<path d="M529.047 42.4698C529.047 45.5087 531.522 47.9787 534.567 47.9787C537.613 47.9787 540.088 45.5087 540.088 42.4698C540.088 39.4309 537.613 36.9609 534.567 36.9609C531.522 36.9609 529.047 39.4309 529.047 42.4698Z" fill="#008F69"/>
<path d="M509.11 42.4698C509.11 45.5087 511.586 47.9787 514.631 47.9787C517.676 47.9787 520.151 45.5087 520.151 42.4698C520.151 39.4309 517.676 36.9609 514.631 36.9609C511.586 36.9609 509.11 39.4309 509.11 42.4698Z" fill="#008F69"/>
<path d="M489.174 42.4698C489.174 45.5087 491.649 47.9787 494.694 47.9787C497.74 47.9787 500.215 45.5087 500.215 42.4698C500.215 39.4309 497.74 36.9609 494.694 36.9609C491.649 36.9609 489.174 39.4309 489.174 42.4698Z" fill="#008F69"/>
<path d="M469.237 42.4698C469.237 45.5087 471.712 47.9787 474.757 47.9787C477.803 47.9787 480.278 45.5087 480.278 42.4698C480.278 39.4309 477.803 36.9609 474.757 36.9609C471.712 36.9609 469.237 39.4309 469.237 42.4698Z" fill="#008F69"/>
<path d="M537.958 57.919C537.958 60.9579 540.433 63.4279 543.478 63.4279C546.523 63.4279 548.999 60.9579 548.999 57.919C548.999 54.8802 546.523 52.4102 543.478 52.4102C540.433 52.4102 537.958 54.8802 537.958 57.919Z" fill="#008F69"/>
<path d="M518.021 57.919C518.021 60.9579 520.496 63.4279 523.542 63.4279C526.587 63.4279 529.062 60.9579 529.062 57.919C529.062 54.8802 526.587 52.4102 523.542 52.4102C520.496 52.4102 518.021 54.8802 518.021 57.919Z" fill="#008F69"/>
<path d="M498.085 57.919C498.085 60.9579 500.56 63.4279 503.605 63.4279C506.65 63.4279 509.125 60.9579 509.125 57.919C509.125 54.8802 506.65 52.4102 503.605 52.4102C500.56 52.4102 498.085 54.8802 498.085 57.919Z" fill="#008F69"/>
<path d="M478.148 57.919C478.148 60.9579 480.623 63.4279 483.669 63.4279C486.714 63.4279 489.189 60.9579 489.189 57.919C489.189 54.8802 486.714 52.4102 483.669 52.4102C480.623 52.4102 478.148 54.8802 478.148 57.919Z" fill="#008F69"/>
<path d="M458.211 57.919C458.211 60.9579 460.686 63.4279 463.732 63.4279C466.777 63.4279 469.252 60.9579 469.252 57.919C469.252 54.8802 466.777 52.4102 463.732 52.4102C460.686 52.4102 458.211 54.8802 458.211 57.919Z" fill="#008F69"/>
<path d="M478.178 262.496H529.062C531.258 262.496 533.038 264.272 533.038 266.463V301.148C533.038 303.339 531.258 305.115 529.062 305.115H478.178C475.983 305.115 474.203 303.339 474.203 301.148V266.463C474.203 264.272 475.983 262.496 478.178 262.496Z" fill="#3D4051"/>
<path d="M474.203 285.699V324.156L489.159 304.92L474.203 285.699Z" fill="#3D4051"/>
<path d="M503.905 268.961C509.501 268.961 512.966 271.581 512.966 276.251C512.966 282.538 506.531 283.377 506.531 288.257H500.98C500.98 281.835 506.11 281.461 506.11 277.464C506.11 275.712 505.03 274.919 503.185 274.919C501.145 274.919 500.05 276.131 500.005 278.631H494.29C494.335 272.509 497.92 268.961 503.89 268.961H503.905ZM507.251 295.023C507.251 297.149 505.75 298.646 503.665 298.646C501.58 298.646 500.11 297.149 500.11 295.023C500.11 292.898 501.58 291.446 503.665 291.446C505.75 291.446 507.251 292.898 507.251 295.023Z" fill="white"/>
<path d="M373.62 301.359H289.764C286.648 301.359 284.123 298.839 284.123 295.731V253.771C284.123 250.662 286.648 248.142 289.764 248.142H373.62C376.735 248.142 379.261 250.662 379.261 253.771V295.731C379.261 298.839 376.735 301.359 373.62 301.359Z" fill="#00B192"/>
<path d="M379.275 280.477V321.838L363.194 301.165L379.275 280.477Z" fill="#00B192"/>
<path d="M295.344 259.965H368.069V265.264H295.344V259.965Z" fill="white"/>
<path d="M295.344 272.105H368.069V277.405H295.344V272.105Z" fill="white"/>
<path d="M295.344 284.23H368.069V289.53H295.344V284.23Z" fill="white"/>
<path d="M85.3721 61.7951C82.4469 70.5075 77.5264 78.696 70.5809 85.6419C63.6353 92.5729 55.4147 97.498 46.684 100.387L85.3871 61.7951H85.3721ZM88.4624 40.5081C88.5524 43.7117 88.4023 46.9002 88.0273 50.0738L34.9231 103.037C31.7579 103.426 28.5326 103.576 25.3524 103.501L88.4474 40.5081H88.4624ZM85.9122 24.8797C86.6322 27.3198 87.2022 29.7748 87.6372 32.2748L17.0867 102.678C14.5965 102.243 12.1213 101.675 9.70612 100.956L85.9272 24.8797H85.9122ZM80.4367 12.1854C81.5768 14.1614 82.5969 16.1823 83.482 18.2332L3.01556 98.5309C2.01048 98.0968 0.990372 97.6177 -0.0147095 97.1387V92.4681L80.4367 12.1854ZM1.54547 0H10.6512L0.000305176 10.6285V1.54188L1.54547 0ZM19.7869 0H28.8926L0.000305176 28.8317V19.7451L19.7869 0V0ZM37.9833 0H47.0891L0.000305176 46.99V37.9034L37.9833 0ZM56.2247 0H65.3305L0.000305176 65.1933V56.1066L56.2247 0ZM72.8011 1.60176C74.2563 3.23347 75.6063 4.91008 76.8814 6.64657L0.0153198 83.3366V74.25L72.8011 1.60176Z" fill="#92FFE2"/>
<path opacity="0.4" d="M595.757 84.9675L637.266 126.389C634.145 117.033 628.865 108.245 621.409 100.805C613.954 93.3655 605.148 88.0812 595.772 84.9825L595.757 84.9675ZM583.156 82.1232L640.116 138.963C640.536 142.347 640.686 145.79 640.596 149.203L572.896 81.6292C576.316 81.5394 579.766 81.7041 583.156 82.1232ZM564.015 82.5424L639.696 158.065C639.231 160.729 638.631 163.364 637.851 165.984L556.079 84.3837C558.689 83.6053 561.345 82.9915 564.015 82.5424ZM548.939 86.9734L635.256 173.109C634.295 175.31 633.2 177.481 631.985 179.606L542.413 90.2219C544.543 89.0093 546.719 87.9165 548.924 86.9585L548.939 86.9734ZM528.582 193.423C521.126 185.983 515.831 177.196 512.726 167.84L554.234 209.261C544.858 206.148 536.053 200.878 528.597 193.438L528.582 193.423ZM566.82 212.106L509.861 155.265C509.441 151.882 509.29 148.439 509.381 145.026L577.081 212.6C573.661 212.689 570.21 212.525 566.82 212.121V212.106ZM585.962 211.686L510.281 136.164C510.746 133.499 511.346 130.865 512.126 128.245L593.897 209.845C591.287 210.624 588.632 211.237 585.962 211.686ZM601.038 207.255L514.721 121.119C515.681 118.919 516.776 116.748 517.991 114.623L607.563 204.007C605.433 205.22 603.258 206.312 601.053 207.27L601.038 207.255ZM613.489 200.16L521.817 108.68C523.182 106.823 524.622 105.027 526.182 103.29L618.874 195.789C617.134 197.345 615.334 198.797 613.474 200.145L613.489 200.16ZM536.473 94.0691L628.145 185.549C626.78 187.406 625.34 189.202 623.78 190.938L531.087 98.4403C532.827 96.8834 534.628 95.4314 536.488 94.0841L536.473 94.0691Z" fill="#92FFE2"/>
</g>
<defs>
<clipPath id="clip0_374_369">
<rect width="656" height="519" fill="white" transform="matrix(-1 0 0 1 656 0)"/>
</clipPath>
</defs>
</svg>
