<svg width="538" height="524" viewBox="0 0 538 524" fill="none" xmlns="http://www.w3.org/2000/svg">
<g clip-path="url(#clip0_282_2413)">
<path d="M343.145 117.461H314.519V361.396C314.519 365.223 313.765 369.013 312.3 372.549C310.834 376.084 308.687 379.297 305.979 382.004C303.271 384.71 300.057 386.857 296.519 388.321C292.982 389.786 289.19 390.54 285.361 390.54H66.5059V390.819C66.5058 394.646 67.26 398.436 68.7253 401.972C70.1907 405.508 72.3384 408.72 75.046 411.427C77.7536 414.133 80.9679 416.28 84.5055 417.744C88.0431 419.209 91.8347 419.963 95.6638 419.963H343.145C346.974 419.963 350.765 419.209 354.303 417.744C357.841 416.28 361.055 414.133 363.763 411.427C366.47 408.72 368.618 405.508 370.083 401.972C371.549 398.436 372.303 394.646 372.303 390.819V146.605C372.303 138.876 369.231 131.463 363.763 125.997C358.294 120.531 350.878 117.461 343.145 117.461Z" fill="#F2F2F2"/>
<path d="M478.843 505.11C479.35 505.133 479.852 505 480.28 504.729C480.709 504.458 481.044 504.061 481.24 503.593C481.435 503.126 481.482 502.609 481.375 502.113C481.267 501.618 481.009 501.168 480.636 500.823L480.467 500.15C480.489 500.096 480.512 500.042 480.534 499.988C481.045 498.783 481.9 497.755 482.993 497.034C484.086 496.313 485.368 495.931 486.677 495.936C487.987 495.941 489.266 496.333 490.353 497.062C491.441 497.791 492.289 498.825 492.79 500.034C494.795 504.859 497.347 509.693 497.975 514.795C498.252 517.05 498.135 519.337 497.63 521.552C502.338 511.287 504.783 500.13 504.799 488.837C504.8 486.003 504.642 483.172 504.327 480.356C504.067 478.047 503.705 475.755 503.243 473.479C500.719 461.131 495.301 449.557 487.434 439.709C483.626 437.632 480.547 434.438 478.61 430.559C477.909 429.164 477.413 427.675 477.139 426.138C477.568 426.195 478.758 419.656 478.434 419.255C479.033 418.347 480.104 417.895 480.758 417.009C484.01 412.603 488.489 413.372 490.828 419.36C495.824 421.88 495.872 426.06 492.807 430.08C490.857 432.637 490.589 436.098 488.877 438.836C489.053 439.061 489.237 439.279 489.413 439.504C492.631 443.641 495.436 448.082 497.787 452.765C497.215 447.519 497.897 442.212 499.778 437.28C501.684 432.684 505.257 428.814 508.403 424.841C509.235 423.774 510.365 422.977 511.65 422.551C512.935 422.126 514.317 422.091 515.622 422.45C516.927 422.81 518.096 423.548 518.981 424.572C519.867 425.595 520.429 426.858 520.596 428.201C520.602 428.259 520.609 428.318 520.615 428.377C520.148 428.64 519.69 428.92 519.243 429.216C518.68 429.591 518.245 430.127 517.993 430.755C517.741 431.382 517.684 432.07 517.83 432.73C517.977 433.39 518.319 433.991 518.812 434.453C519.306 434.915 519.927 435.217 520.596 435.32L520.664 435.331C520.498 437.014 520.203 438.682 519.784 440.321C523.82 455.921 515.107 461.603 502.665 461.859C502.391 461.999 502.123 462.14 501.848 462.274C504.211 468.966 505.693 475.936 506.257 483.009C506.576 487.183 506.557 491.375 506.2 495.545L506.221 495.397C507.123 490.76 509.598 486.576 513.228 483.551C518.62 479.124 526.238 477.494 532.055 473.935C532.673 473.538 533.392 473.327 534.127 473.325C534.861 473.323 535.581 473.531 536.201 473.925C536.821 474.319 537.316 474.881 537.627 475.547C537.937 476.212 538.051 476.953 537.954 477.681L537.931 477.836C537.064 478.189 536.219 478.596 535.403 479.054C534.935 479.317 534.478 479.597 534.03 479.893C533.468 480.268 533.033 480.805 532.781 481.432C532.529 482.059 532.472 482.748 532.618 483.407C532.765 484.067 533.107 484.668 533.6 485.13C534.094 485.592 534.715 485.894 535.384 485.997L535.452 486.008C535.501 486.015 535.544 486.022 535.593 486.029C534.111 489.565 532.032 492.82 529.445 495.65C526.922 509.269 516.083 510.561 504.489 506.595H504.482C503.21 512.121 501.367 517.499 498.982 522.643H479.336C479.265 522.425 479.202 522.2 479.139 521.981C480.957 522.096 482.783 521.987 484.575 521.658C483.117 519.87 481.66 518.068 480.202 516.28C480.169 516.247 480.139 516.212 480.11 516.175C479.371 515.26 478.624 514.352 477.885 513.437L477.885 513.436C477.845 510.631 478.167 507.833 478.843 505.11L478.843 505.11Z" fill="#F2F2F2"/>
<path d="M262.452 84.28C263.169 85.3662 264.114 86.2837 265.221 86.9691C266.328 87.6545 267.57 88.0914 268.863 88.2495C270.155 88.4076 271.467 88.2832 272.706 87.8849C273.946 87.4866 275.084 86.8239 276.043 85.9427L316.889 104.362L324.764 94.3222L276.09 72.7995C274.486 71.2977 272.387 70.4361 270.189 70.3781C267.992 70.3201 265.85 71.0697 264.169 72.4848C262.488 73.9 261.385 75.8823 261.068 78.0562C260.752 80.2302 261.244 82.4446 262.452 84.28H262.452Z" fill="#FFCBA5"/>
<path d="M437.748 95.768L441.799 118.714C441.988 119.784 441.951 120.883 441.69 121.938C441.429 122.993 440.951 123.982 440.285 124.842C439.619 125.702 438.781 126.412 437.824 126.929C436.867 127.446 435.813 127.756 434.728 127.842L365.891 133.252L284.976 97.056L294.64 78.7188L364.882 100.952L437.748 95.768Z" fill="#008F69"/>
<path d="M276.639 79.3203H29.158C13.0545 79.3203 0 92.3686 0 108.464V352.678C0 368.774 13.0545 381.822 29.158 381.822H276.639C292.743 381.822 305.797 368.774 305.797 352.678V108.464C305.797 92.3686 292.743 79.3203 276.639 79.3203Z" fill="#F2F2F2"/>
<path d="M29.1577 85.3125C26.1161 85.3125 23.1042 85.9113 20.2941 87.0747C17.484 88.2381 14.9307 89.9434 12.78 92.0932C10.6292 94.2429 8.92312 96.795 7.75915 99.6037C6.59517 102.413 5.99609 105.423 5.99609 108.463V352.677C5.99609 358.817 8.43632 364.705 12.78 369.047C17.1236 373.388 23.0149 375.827 29.1577 375.827H187.106C201.905 375.827 216.559 372.914 230.232 367.253C243.905 361.592 256.328 353.295 266.793 342.836C277.257 332.376 285.558 319.959 291.222 306.293C296.885 292.626 299.8 277.979 299.8 263.187V108.463C299.8 105.423 299.201 102.413 298.037 99.6037C296.873 96.795 295.167 94.2429 293.016 92.0932C290.865 89.9434 288.312 88.2381 285.502 87.0747C282.692 85.9113 279.68 85.3125 276.638 85.3125H29.1577Z" fill="white"/>
<path d="M222.081 159.428H83.175C81.9004 159.428 80.678 158.921 79.7767 158.021C78.8755 157.12 78.3691 155.898 78.3691 154.624C78.3691 153.35 78.8755 152.128 79.7767 151.227C80.678 150.326 81.9004 149.82 83.175 149.82H222.081C223.355 149.82 224.578 150.326 225.479 151.227C226.38 152.128 226.887 153.35 226.887 154.624C226.887 155.898 226.38 157.12 225.479 158.021C224.578 158.921 223.355 159.428 222.081 159.428Z" fill="#F2F2F2"/>
<path d="M222.081 261.865H83.175C81.9004 261.865 80.678 261.359 79.7767 260.458C78.8755 259.557 78.3691 258.335 78.3691 257.061C78.3691 255.787 78.8755 254.566 79.7767 253.665C80.678 252.764 81.9004 252.258 83.175 252.258H222.081C223.355 252.258 224.578 252.764 225.479 253.665C226.38 254.566 226.887 255.787 226.887 257.061C226.887 258.335 226.38 259.557 225.479 260.458C224.578 261.359 223.355 261.865 222.081 261.865Z" fill="#F2F2F2"/>
<path d="M278.487 210.681H26.7678C25.4932 210.681 24.2708 210.175 23.3695 209.275C22.4682 208.374 21.9619 207.152 21.9619 205.878C21.9619 204.604 22.4682 203.382 23.3695 202.481C24.2708 201.58 25.4932 201.074 26.7678 201.074H278.487C279.762 201.074 280.984 201.58 281.885 202.481C282.787 203.382 283.293 204.604 283.293 205.878C283.293 207.152 282.787 208.374 281.885 209.275C280.984 210.175 279.762 210.681 278.487 210.681Z" fill="#F2F2F2"/>
<path d="M429.051 196.902L403.975 250.299L500.437 240.534L480.301 189.273L429.051 196.902Z" fill="#FFCBA5"/>
<path d="M451.477 503.808L442.33 503.731L438.282 467.648L451.78 467.763L451.477 503.808Z" fill="#FFCBA5"/>
<path d="M422.182 518.346C422.174 519.429 422.596 520.472 423.356 521.245C424.116 522.018 425.152 522.458 426.236 522.469L444.42 522.62L447.603 516.171L448.772 522.653L455.634 522.715L453.901 499.595L451.514 499.436L441.777 498.765L438.636 498.555L438.581 505.096L423.974 514.999C423.426 515.371 422.977 515.869 422.665 516.452C422.353 517.035 422.187 517.685 422.182 518.346Z" fill="#2F2E41"/>
<path d="M350.263 503.849L341.543 501.088L348.28 465.41L361.149 469.483L350.263 503.849Z" fill="#FFCBA5"/>
<path d="M317.988 509.14C317.661 510.173 317.759 511.294 318.258 512.256C318.757 513.218 319.618 513.943 320.651 514.271L337.988 519.757L342.926 514.526L342.139 521.066L348.679 523.141L353.819 500.532L351.584 499.679L342.474 496.178L339.533 495.055L337.558 501.291L320.684 506.468C320.052 506.662 319.476 507.006 319.007 507.472C318.537 507.937 318.187 508.51 317.988 509.14Z" fill="#2F2E41"/>
<path d="M496.044 225.516L408.336 241.579C408.336 241.579 394.268 252.097 398.032 255.864C401.795 259.631 402.379 259.048 399.906 261.519C397.434 263.99 392.088 267.294 392.035 269.456C391.983 271.618 352.733 368.605 352.733 368.605C352.733 368.605 357.094 366.426 353.823 369.695C350.553 372.964 350.553 375.666 350.553 375.666L335.289 478.669L360.078 480.128L384.351 386.221L438.492 298.493C438.492 298.493 443.864 376.724 444.09 381.928C444.315 387.131 447.586 380.592 444.315 387.131C441.044 393.669 438.864 389.31 441.044 393.669C443.225 398.028 433.189 486.771 433.189 486.771H455.815L504.343 302.832C504.343 302.832 521.608 250.246 496.044 225.516Z" fill="#2F2E41"/>
<path d="M470.206 78.391L435.073 74.7422L425.97 86.5542L415.366 92.1993C410.879 94.5882 407.175 98.2186 404.697 102.656C402.219 107.094 401.073 112.151 401.395 117.222L413.787 189.275C413.787 189.275 403.32 212.834 410.516 218.698C417.713 224.562 404.952 239.084 420.329 231.775C435.705 224.466 502.098 232.865 502.098 232.865L487.925 192.544L498.513 152.924L499.678 119.703C499.896 113.495 498.053 107.389 494.436 102.338C490.819 97.2865 485.632 93.573 479.683 91.7761L478.203 91.329L470.206 78.391Z" fill="#008F69"/>
<path d="M518.575 51.4694C518.805 61.3675 515.104 70.9518 509.787 79.3701C508.208 74.4556 505.368 69.9828 502.406 65.719C503.899 74.9428 502.309 84.4013 497.882 92.6308C497.725 92.7423 497.564 92.846 497.397 92.9412C493.064 95.5468 487.569 96.6022 482.881 94.7203C492.568 84.2842 493.8 66.993 485.679 55.2873C483.38 51.9657 480.407 49.0281 478.983 45.2481C476.734 39.2169 478.896 32.5764 480.259 26.2883C481.534 20.4359 481.757 13.4716 477.829 9.1825C478.249 8.58312 478.82 8.10601 479.485 7.80006C480.15 7.49411 480.884 7.37033 481.612 7.44139C484.034 7.78334 485.797 9.88748 486.92 12.0546C488.043 14.2217 488.783 16.6235 490.348 18.4954C493.246 21.9989 498.181 22.8272 502.339 24.6736C512.411 29.1575 518.333 40.4555 518.575 51.4694Z" fill="#2F2E41"/>
<path d="M259.101 522.703C259.1 522.873 259.133 523.042 259.198 523.2C259.263 523.357 259.359 523.501 259.479 523.621C259.6 523.742 259.743 523.837 259.901 523.902C260.059 523.967 260.228 524 260.398 524H536.549C536.894 524 537.224 523.863 537.467 523.62C537.71 523.377 537.847 523.047 537.847 522.703C537.847 522.359 537.71 522.029 537.467 521.786C537.224 521.543 536.894 521.406 536.549 521.406H260.398C260.228 521.406 260.059 521.439 259.901 521.504C259.743 521.569 259.6 521.664 259.479 521.785C259.359 521.905 259.263 522.049 259.198 522.206C259.133 522.364 259.1 522.533 259.101 522.703Z" fill="#CCCCCC"/>
<path d="M520.749 280.877C526.168 280.877 530.561 276.486 530.561 271.069C530.561 265.653 526.168 261.262 520.749 261.262C515.33 261.262 510.937 265.653 510.937 271.069C510.937 276.486 515.33 280.877 520.749 280.877Z" fill="#008F69"/>
<path d="M433.799 45.8093C434.375 43.796 430.408 56.1034 432.322 56.3256C441.04 57.3253 453.008 62.5297 459.081 64.9576C459.354 64.9259 459.628 64.8941 459.893 64.8545C460.544 64.7831 461.18 64.6799 461.807 64.5609C475.946 61.887 481.383 40.1778 481.383 39.9795C481.383 39.0036 479.04 12.1987 475.348 11.8021C474.379 11.6969 473.404 11.6439 472.429 11.6434H463.268C461.373 11.2351 459.451 10.9567 457.518 10.8103H457.502C439.06 9.40583 424.518 20.6411 425.877 34.3123C425.886 34.3281 425.902 34.344 425.91 34.3599C426.304 34.947 426.65 35.5025 426.955 36.0341C427.253 36.534 427.502 37.01 427.719 37.4623C429.4 40.9535 425.079 45.3465 427.944 46.1665C431.755 47.257 417.922 83.1017 433.005 83.1017C425.669 85.1865 432.211 51.3635 433.799 45.8093Z" fill="#2F2E41"/>
<path d="M450.261 66.842C462.24 66.842 471.951 57.1361 471.951 45.1632C471.951 33.1903 462.24 23.4844 450.261 23.4844C438.283 23.4844 428.572 33.1903 428.572 45.1632C428.572 57.1361 438.283 66.842 450.261 66.842Z" fill="#FFCBA5"/>
<path d="M425.877 35.4933C426.239 35.6837 426.593 35.8582 426.955 36.0328C427.333 36.2153 427.711 36.3978 428.089 36.5644C435.351 39.8573 441.263 40.2222 444.85 35.4933C444.946 33.005 445.505 30.5564 446.499 28.2728C446.323 30.8247 446.996 33.3631 448.413 35.4933H455.635C463.075 40.4285 466.895 40.9443 461.732 57.1465C460.292 61.6613 454.568 87.9325 456.82 91.8284C457.471 91.7569 464.402 62.9818 465.029 62.8629C479.168 60.1889 488.152 36.9056 487.002 35.5885C487.008 31.843 486.146 28.1469 484.484 24.7896C482.383 20.5361 479.106 16.9733 475.042 14.5224C472.62 13.3484 470.095 12.4002 467.498 11.6897C467.434 11.6738 467.377 11.6579 467.313 11.6421C466.517 11.4279 465.705 11.2295 464.892 11.0629C463.214 10.7087 461.517 10.4517 459.809 10.2932C459.689 10.2853 459.568 10.2773 459.455 10.2773C458.774 10.2789 458.104 10.4625 457.517 10.809C457.509 10.809 457.509 10.8169 457.501 10.8169C457.081 11.062 456.715 11.3884 456.423 11.777C455.91 12.4307 455.632 13.2388 455.635 14.07H447.592C447.295 14.07 446.997 14.078 446.7 14.0938C441.332 14.2772 436.226 16.4561 432.38 20.2041C428.535 23.9522 426.227 28.9996 425.909 34.3586C425.885 34.7395 425.877 35.1124 425.877 35.4933Z" fill="#2F2E41"/>
<path d="M473.3 28.5643C481.191 28.5643 487.589 22.1699 487.589 14.2821C487.589 6.39433 481.191 0 473.3 0C465.408 0 459.011 6.39433 459.011 14.2821C459.011 22.1699 465.408 28.5643 473.3 28.5643Z" fill="#2F2E41"/>
<path d="M520.86 275.116C521.557 274.016 522.007 272.779 522.179 271.489C522.351 270.199 522.24 268.887 521.855 267.644C521.47 266.4 520.819 265.256 519.947 264.289C519.076 263.322 518.004 262.555 516.807 262.043L516.878 217.253L504.488 214.188L504.793 267.386C504.08 269.464 504.154 271.731 505.002 273.758C505.849 275.785 507.411 277.431 509.392 278.383C511.372 279.336 513.633 279.53 515.747 278.928C517.86 278.325 519.68 276.969 520.86 275.116V275.116Z" fill="#FFCBA5"/>
<path d="M459.504 110.582L478.784 97.4849C479.684 96.8739 480.701 96.4577 481.771 96.2629C482.841 96.0681 483.94 96.0991 484.997 96.3539C486.054 96.6087 487.047 97.0816 487.91 97.7424C488.774 98.4031 489.49 99.237 490.012 100.191L523.16 160.735L523.286 249.342L502.591 248.046L494.096 174.892L459.504 110.582Z" fill="#008F69"/>
<path d="M311.427 311.531H105.369C100.887 311.531 96.5885 313.311 93.4193 316.479C90.2501 319.646 88.4697 323.942 88.4697 328.422C88.4697 332.902 90.2501 337.198 93.4193 340.366C96.5885 343.534 100.887 345.313 105.369 345.313H311.427C315.909 345.313 320.208 343.534 323.377 340.366C326.546 337.198 328.326 332.902 328.326 328.422C328.326 323.942 326.546 319.646 323.377 316.479C320.208 313.311 315.909 311.531 311.427 311.531Z" fill="white"/>
<path d="M311.427 346.403H105.368C100.597 346.403 96.0215 344.508 92.6478 341.136C89.2742 337.764 87.3789 333.191 87.3789 328.422C87.3789 323.653 89.2742 319.08 92.6478 315.708C96.0215 312.336 100.597 310.441 105.368 310.441H311.427C316.198 310.441 320.774 312.336 324.147 315.708C327.521 319.08 329.416 323.653 329.416 328.422C329.416 333.191 327.521 337.764 324.147 341.136C320.774 344.508 316.198 346.403 311.427 346.403ZM105.368 312.621C101.175 312.621 97.1544 314.286 94.1897 317.249C91.225 320.212 89.5594 324.231 89.5594 328.422C89.5594 332.613 91.225 336.632 94.1897 339.595C97.1544 342.559 101.175 344.223 105.368 344.223H311.427C315.62 344.223 319.641 342.559 322.605 339.595C325.57 336.632 327.236 332.613 327.236 328.422C327.236 324.231 325.57 320.212 322.605 317.249C319.641 314.286 315.62 312.621 311.427 312.621H105.368Z" fill="#008F69"/>
<path d="M323.578 385.248H232.644C231.369 385.248 230.147 384.742 229.245 383.841C228.344 382.94 227.838 381.718 227.838 380.444C227.838 379.17 228.344 377.948 229.245 377.048C230.147 376.147 231.369 375.641 232.644 375.641H323.578C324.853 375.641 326.075 376.147 326.977 377.048C327.878 377.948 328.384 379.17 328.384 380.444C328.384 381.718 327.878 382.94 326.977 383.841C326.075 384.742 324.853 385.248 323.578 385.248Z" fill="#008F69"/>
</g>
<defs>
<clipPath id="clip0_282_2413">
<rect width="538" height="524" fill="white"/>
</clipPath>
</defs>
</svg>
